{
    "asset" : {
        "generator" : "Khronos glTF Blender I/O v1.6.16",
        "version" : "2.0"
    },
    "scene" : 0,
    "scenes" : [
        {
            "name" : "Scene",
            "nodes" : [
                2
            ]
        }
    ],
    "nodes" : [
        {
            "mesh" : 0,
            "name" : "g0",
            "translation" : [
                0.004316549748182297,
                -0.14475403726100922,
                -0.06276611983776093
            ]
        },
        {
            "children" : [
                0
            ],
            "name" : "Geom"
        },
        {
            "children" : [
                1
            ],
            "name" : "baked_mesh",
            "rotation" : [
                0.7071068286895752,
                0,
                0,
                0.7071067094802856
            ]
        }
    ],
    "materials" : [
        {
            "doubleSided" : true,
            "name" : "g0",
            "pbrMetallicRoughness" : {
                "baseColorTexture" : {
                    "index" : 0
                },
                "metallicFactor" : 0,
                "roughnessFactor" : 0.5
            }
        }
    ],
    "meshes" : [
        {
            "name" : "geometry6",
            "primitives" : [
                {
                    "attributes" : {
                        "POSITION" : 0,
                        "NORMAL" : 1,
                        "TEXCOORD_0" : 2
                    },
                    "indices" : 3,
                    "material" : 0
                }
            ]
        }
    ],
    "textures" : [
        {
            "sampler" : 0,
            "source" : 0
        }
    ],
    "images" : [
        {
            "bufferView" : 4,
            "mimeType" : "image/jpeg",
            "name" : "MyObject_texture2"
        }
    ],
    "accessors" : [
        {
            "bufferView" : 0,
            "componentType" : 5126,
            "count" : 41543,
            "max" : [
                0.007215261459350586,
                0.1690349578857422,
                0.07436977326869965
            ],
            "min" : [
                -0.015080280601978302,
                0.11134031414985657,
                0.03941790759563446
            ],
            "type" : "VEC3"
        },
        {
            "bufferView" : 1,
            "componentType" : 5126,
            "count" : 41543,
            "type" : "VEC3"
        },
        {
            "bufferView" : 2,
            "componentType" : 5126,
            "count" : 41543,
            "type" : "VEC2"
        },
        {
            "bufferView" : 3,
            "componentType" : 5123,
            "count" : 216639,
            "type" : "SCALAR"
        }
    ],
    "bufferViews" : [
        {
            "buffer" : 0,
            "byteLength" : 498516,
            "byteOffset" : 0
        },
        {
            "buffer" : 0,
            "byteLength" : 498516,
            "byteOffset" : 498516
        },
        {
            "buffer" : 0,
            "byteLength" : 332344,
            "byteOffset" : 997032
        },
        {
            "buffer" : 0,
            "byteLength" : 433278,
            "byteOffset" : 1329376
        },
        {
            "buffer" : 0,
            "byteLength" : 275246,
            "byteOffset" : 1762656
        }
    ],
    "samplers" : [
        {
            "magFilter" : 9729,
            "minFilter" : 9987
        }
    ],
    "buffers" : [
        {
            "byteLength" : 2037904,
            "uri" : "data:application/octet-stream;base64,"
        }
    ]
}
